<?xml version="1.0" encoding="utf-8"?>
<svg viewBox="0 0 800 212" style="enable-background:new 0 0 800 212;" xmlns="http://www.w3.org/2000/svg">
  <defs>
    <style type="text/css">
	.st0{enable-background:new    ;}
	.st1{fill:#000000;}
	.st2{fill:#D3D3D3;}
	.st3{fill:#A6A6A6;}
	.st4{fill:#727272;}
	.st5{fill:#444444;}
	.st6{fill:#282828;}
	.st7{fill:#595959;}
	.st8{fill:#A5A5A5;}
	.st9{fill:#7F7F7F;}
	.st10{fill:#666666;}
	.st11{fill:#EDEDED;}
	.st12{fill:#2B2B2B;}
	.st13{fill:#939393;}
	.st14{fill:#C9C9C9;}
	.st15{fill:#6D6D6D;}
	.st16{fill:#757575;}
	.st17{fill:#212121;}
	.st18{fill:#3A3A3A;}
	.st19{fill:#191919;}
	.st20{fill:#292929;}
	.st21{fill:#013A01;}
	.st22{fill:#003500;}
	.st23{fill:#013F01;}
	.st24{fill:#148400;}
	.st25{fill:#00C900;}
	.st26{fill:#0D6600;}
	.st27{fill:#009900;}
	.st28{fill:#00A600;}
	.st29{fill:#008C00;}
	.st30{fill:#00EF00;}
	.st31{fill:#00FF00;}
	.st32{fill:#6CFF6C;}
	.st33{fill:#A5F9A5;}
	.st34{fill:#00D800;}
	.st35{fill:#00E200;}
	.st36{fill:#00CC00;}
	.st37{fill:#008200;}
	.st38{fill:#0C7A00;}
	.st39{fill:#002800;}
	.st40{fill:#031600;}
	.st41{fill:#020C00;}
	.st42{fill:#111111;}
	.st43{fill:#161616;}
	.st44{fill:#0F0F0F;}
	.st45{fill:#0C0C0C;}
	.st46{fill:#010600;}
	.st47{fill:#141414;}
	.st48{fill:#0A0A0A;}
	.st49{fill:#353535;}
	.st50{fill:#AFAFAF;}
</style>
  </defs>
  <rect x="-0.3" y="-0.6" width="801.9" height="259.3" style="fill: none;"/>
  <g id="Layer_1-2" style="" transform="matrix(1.384216, 0, 0, 1.384216, -154.181976, -48.296314)">
    <g>
      <g class="st0">
        <path class="st1" d="M309.9,175.8c0.3,0,0.5,0.1,0.6,0.2s0.2,0.3,0.2,0.6v5.6c0,0.7-0.1,1.3-0.4,1.9c-0.2,0.6-0.6,1.1-1.2,1.6 s-1.3,0.9-2.3,1.1c-0.9,0.3-2.1,0.4-3.6,0.4s-2.6-0.1-3.6-0.4c-0.9-0.3-1.7-0.7-2.3-1.1s-1-1-1.2-1.6s-0.4-1.2-0.4-1.9v-11.6 c0-0.6,0.1-1.3,0.4-1.9c0.2-0.6,0.6-1.2,1.2-1.7s1.3-0.9,2.3-1.1c0.9-0.3,2.1-0.4,3.6-0.4s2.6,0.1,3.6,0.4 c0.9,0.3,1.7,0.7,2.3,1.1s1,1,1.2,1.6s0.4,1.2,0.4,1.9v1.3c0,0.5-0.2,0.8-0.7,0.8h-2.6c-0.5,0-0.8-0.3-0.8-0.8v-0.5 c0-1.6-1.1-2.4-3.2-2.4s-3.2,0.8-3.2,2.4v10.2c0,1.6,1.1,2.4,3.2,2.4s3.2-0.8,3.2-2.3v-2.3h-3.1c-0.3,0-0.5-0.1-0.6-0.2 s-0.2-0.3-0.2-0.6v-2c0-0.3,0.1-0.5,0.2-0.6s0.3-0.2,0.6-0.2h6.4V175.8z"/>
        <path class="st1" d="M331.4,165.7c0.5,0,0.9,0.3,1,0.8l5.8,19.8c0.2,0.5,0,0.8-0.6,0.8h-2.8c-0.3,0-0.5-0.1-0.6-0.2 s-0.2-0.3-0.3-0.6l-1.1-3.8H327l-1.1,3.8c-0.1,0.3-0.2,0.4-0.3,0.6c-0.1,0.1-0.3,0.2-0.6,0.2h-2.5c-0.6,0-0.8-0.3-0.6-0.8 l5.9-19.8c0.1-0.3,0.2-0.5,0.3-0.6c0.1-0.1,0.4-0.2,0.6-0.2L331.4,165.7L331.4,165.7z M330.9,175.6c-0.1-0.3-0.2-0.8-0.3-1.4 c-0.1-0.6-0.2-1.2-0.3-1.8c-0.1-0.6-0.2-1.2-0.2-1.7c-0.1-0.5-0.1-0.8-0.1-0.9c0,0.1-0.1,0.4-0.1,0.9c-0.1,0.5-0.1,1-0.2,1.6 s-0.2,1.2-0.3,1.8s-0.2,1.1-0.3,1.4L328,179h4L330.9,175.6z"/>
        <path class="st1" d="M369,186.2c0,0.3-0.1,0.5-0.2,0.6s-0.3,0.2-0.6,0.2h-2.6c-0.3,0-0.5-0.1-0.6-0.2s-0.2-0.3-0.2-0.6v-11.9 c0,0,0,0.1-0.1,0.4c-0.1,0.2-0.2,0.5-0.3,0.8c-0.1,0.3-0.2,0.6-0.3,0.9c-0.1,0.3-0.2,0.6-0.3,0.8l-2.4,5.8 c-0.1,0.3-0.2,0.4-0.4,0.6s-0.4,0.2-0.6,0.2h-2.2c-0.3,0-0.5-0.1-0.6-0.2s-0.3-0.3-0.4-0.6l-2.7-6.3c-0.1-0.2-0.2-0.4-0.3-0.6 c-0.1-0.2-0.2-0.5-0.2-0.7s-0.1-0.4-0.2-0.6s-0.1-0.3-0.1-0.4v11.9c0,0.3-0.1,0.5-0.2,0.6s-0.3,0.2-0.6,0.2h-2.5 c-0.3,0-0.5-0.1-0.6-0.2s-0.2-0.3-0.2-0.6v-19.8c0-0.3,0.1-0.5,0.2-0.6s0.3-0.2,0.6-0.2h2.5c0.2,0,0.4,0,0.5,0.1s0.2,0.2,0.2,0.3 l4.8,11c0.1,0.2,0.2,0.5,0.3,0.7c0.1,0.2,0.2,0.5,0.3,0.7c0.1,0.3,0.2,0.5,0.3,0.8c0.1-0.2,0.2-0.5,0.3-0.7 c0.1-0.2,0.2-0.4,0.3-0.7c0.1-0.3,0.2-0.5,0.3-0.7l4.7-11.1c0.1-0.3,0.3-0.4,0.7-0.4h2.6c0.3,0,0.5,0.1,0.6,0.2s0.2,0.3,0.2,0.6 L369,186.2L369,186.2z"/>
        <path class="st1" d="M386.6,186.2c0,0.3-0.1,0.5-0.2,0.6s-0.3,0.2-0.6,0.2h-2.7c-0.3,0-0.5-0.1-0.6-0.2s-0.2-0.3-0.2-0.6v-19.7 c0-0.3,0.1-0.5,0.2-0.6s0.3-0.2,0.6-0.2h2.7c0.3,0,0.5,0.1,0.6,0.2s0.2,0.3,0.2,0.6L386.6,186.2L386.6,186.2z"/>
        <path class="st1" d="M415.4,186.2c0,0.3-0.1,0.5-0.2,0.6s-0.3,0.2-0.6,0.2H412c-0.2,0-0.4,0-0.5-0.1s-0.2-0.2-0.3-0.3l-6.1-10.4 c-0.4-0.7-0.7-1.3-0.9-1.8c-0.2-0.5-0.3-0.7-0.3-0.8v12.5c0,0.3-0.1,0.5-0.2,0.6s-0.3,0.2-0.6,0.2h-2.5c-0.3,0-0.5-0.1-0.6-0.2 s-0.2-0.3-0.2-0.6v-19.8c0-0.3,0.1-0.5,0.2-0.6s0.3-0.2,0.6-0.2h2.5c0.3,0,0.5,0.1,0.7,0.3l6.3,10.8c0.1,0.2,0.3,0.5,0.4,0.7 c0.1,0.3,0.2,0.5,0.3,0.7c0.1,0.3,0.2,0.5,0.3,0.8v-12.6c0-0.3,0.1-0.5,0.2-0.6s0.3-0.2,0.6-0.2h2.5c0.3,0,0.5,0.1,0.6,0.2 s0.2,0.3,0.2,0.6v20H415.4z"/>
        <path class="st1" d="M442.4,175.8c0.3,0,0.5,0.1,0.6,0.2s0.2,0.3,0.2,0.6v5.6c0,0.7-0.1,1.3-0.4,1.9c-0.2,0.6-0.6,1.1-1.2,1.6 s-1.3,0.9-2.3,1.1c-0.9,0.3-2.1,0.4-3.6,0.4c-1.4,0-2.6-0.1-3.6-0.4c-0.9-0.3-1.7-0.7-2.3-1.1c-0.6-0.5-1-1-1.2-1.6 s-0.4-1.2-0.4-1.9v-11.6c0-0.6,0.1-1.3,0.4-1.9s0.6-1.2,1.2-1.7s1.3-0.9,2.3-1.1c0.9-0.3,2.1-0.4,3.6-0.4c1.4,0,2.6,0.1,3.6,0.4 c0.9,0.3,1.7,0.7,2.3,1.1c0.6,0.5,1,1,1.2,1.6s0.4,1.2,0.4,1.9v1.3c0,0.5-0.2,0.8-0.7,0.8h-2.6c-0.5,0-0.8-0.3-0.8-0.8v-0.5 c0-1.6-1.1-2.4-3.2-2.4s-3.2,0.8-3.2,2.4v10.2c0,1.6,1.1,2.4,3.2,2.4s3.2-0.8,3.2-2.3v-2.3H436c-0.3,0-0.5-0.1-0.6-0.2 s-0.2-0.3-0.2-0.6v-2c0-0.3,0.1-0.5,0.2-0.6s0.3-0.2,0.6-0.2h6.4V175.8z"/>
        <path class="st1" d="M486.4,186.2c0,0.3-0.1,0.5-0.2,0.6s-0.3,0.2-0.6,0.2H483c-0.2,0-0.4,0-0.5-0.1s-0.2-0.2-0.3-0.3l-6.1-10.4 c-0.4-0.7-0.7-1.3-0.9-1.8c-0.2-0.5-0.3-0.7-0.3-0.8v12.5c0,0.3-0.1,0.5-0.2,0.6s-0.3,0.2-0.6,0.2h-2.5c-0.3,0-0.5-0.1-0.6-0.2 s-0.2-0.3-0.2-0.6v-19.8c0-0.3,0.1-0.5,0.2-0.6s0.3-0.2,0.6-0.2h2.5c0.3,0,0.5,0.1,0.7,0.3l6.3,10.8c0.1,0.2,0.3,0.5,0.4,0.7 c0.1,0.3,0.2,0.5,0.3,0.7c0.1,0.3,0.2,0.5,0.3,0.8v-12.6c0-0.3,0.1-0.5,0.2-0.6s0.3-0.2,0.6-0.2h2.5c0.3,0,0.5,0.1,0.6,0.2 s0.2,0.3,0.2,0.6v20H486.4z"/>
      </g>
      <g class="st0">
        <path class="st1" d="M501.4,170.5c0-0.6,0.1-1.3,0.4-1.9s0.7-1.2,1.3-1.7s1.4-0.9,2.4-1.1s2.2-0.4,3.6-0.4c1.4,0,2.6,0.1,3.6,0.4 c1,0.3,1.8,0.7,2.4,1.1c0.6,0.4,1,1,1.3,1.7c0.3,0.6,0.4,1.3,0.4,1.9v11.6c0,0.7-0.1,1.3-0.4,1.9s-0.7,1.2-1.3,1.6 s-1.4,0.9-2.4,1.1c-1,0.2-2.2,0.4-3.6,0.4c-1.4,0-2.6-0.1-3.6-0.4s-1.8-0.7-2.4-1.1s-1-1-1.3-1.6s-0.4-1.2-0.4-1.9L501.4,170.5 L501.4,170.5z M512.3,171.3c0-0.8-0.3-1.4-0.9-1.8c-0.6-0.4-1.4-0.6-2.5-0.6s-1.9,0.2-2.5,0.6s-0.9,1-0.9,1.8v10.2 c0,0.8,0.3,1.4,0.9,1.8s1.4,0.6,2.5,0.6s1.9-0.2,2.5-0.6c0.6-0.4,0.9-1,0.9-1.8V171.3z"/>
      </g>
      <g class="st0">
        <path class="st1" d="M541.9,165.7c0.3,0,0.5,0.1,0.6,0.2s0.2,0.3,0.2,0.6v2c0,0.5-0.3,0.8-0.8,0.8h-4.5v17.1 c0,0.3-0.1,0.5-0.2,0.6s-0.3,0.2-0.6,0.2h-2.7c-0.5,0-0.8-0.3-0.8-0.8v-17.1h-4.5c-0.5,0-0.8-0.3-0.8-0.8v-2 c0-0.3,0.1-0.5,0.2-0.6c0.1-0.1,0.3-0.2,0.6-0.2L541.9,165.7L541.9,165.7z"/>
        <path class="st1" d="M555.1,187c-0.3,0-0.5-0.1-0.6-0.2s-0.2-0.3-0.2-0.6v-19.7c0-0.3,0.1-0.5,0.2-0.6c0.1-0.1,0.3-0.2,0.6-0.2 h10.8c0.3,0,0.5,0.1,0.6,0.2s0.2,0.3,0.2,0.6v2c0,0.5-0.3,0.8-0.8,0.8h-7.3v5.1h6.7c0.3,0,0.5,0.1,0.6,0.2s0.2,0.3,0.2,0.6v1.9 c0,0.5-0.3,0.8-0.8,0.8h-6.7v5.9h7.6c0.3,0,0.5,0.1,0.6,0.2s0.2,0.3,0.2,0.6v2c0,0.5-0.3,0.8-0.8,0.8h-11.1V187z"/>
        <path class="st1" d="M580.2,187c-0.3,0-0.5-0.1-0.6-0.2s-0.2-0.3-0.2-0.6v-19.7c0-0.3,0.1-0.5,0.2-0.6c0.1-0.1,0.3-0.2,0.6-0.2 h5.8c1.4,0,2.6,0.1,3.6,0.4s1.7,0.6,2.3,1s1,0.9,1.3,1.5c0.3,0.6,0.4,1.2,0.4,1.9v1.9c0,0.8-0.2,1.5-0.6,2.1s-1,1.1-1.8,1.5 c1.1,0.4,1.9,0.9,2.5,1.5s0.9,1.4,0.9,2.3v2.5c0,0.7-0.1,1.3-0.4,1.9s-0.7,1.1-1.3,1.6s-1.4,0.8-2.3,1.1c-1,0.3-2.2,0.4-3.6,0.4 h-6.8V187z M583.7,169v5.5h2.4c1,0,1.8-0.2,2.4-0.6c0.6-0.4,0.9-1,0.9-1.8V171c0-0.8-0.3-1.3-0.9-1.6c-0.6-0.3-1.4-0.4-2.5-0.4 H583.7z M583.7,177.7v5.9h3.2c1.1,0,1.9-0.2,2.5-0.6s0.9-1,0.9-1.8v-1.4c0-0.7-0.3-1.2-0.9-1.6c-0.6-0.4-1.4-0.6-2.5-0.6h-3.2 V177.7z"/>
        <path class="st1" d="M606.8,170.5c0-0.6,0.1-1.3,0.4-1.9c0.3-0.6,0.7-1.2,1.3-1.7s1.4-0.9,2.4-1.1s2.2-0.4,3.6-0.4 c1.4,0,2.6,0.1,3.6,0.4s1.8,0.7,2.4,1.1c0.6,0.5,1,1,1.3,1.7c0.3,0.7,0.4,1.3,0.4,1.9v11.6c0,0.7-0.1,1.3-0.4,1.9 s-0.7,1.2-1.3,1.6c-0.6,0.5-1.4,0.9-2.4,1.1s-2.2,0.4-3.6,0.4s-2.6-0.1-3.6-0.4s-1.8-0.7-2.4-1.1c-0.6-0.5-1-1-1.3-1.6 c-0.3-0.6-0.4-1.2-0.4-1.9V170.5z M617.8,171.3c0-0.8-0.3-1.4-0.9-1.8s-1.4-0.6-2.5-0.6s-1.9,0.2-2.5,0.6s-0.9,1-0.9,1.8v10.2 c0,0.8,0.3,1.4,0.9,1.8c0.6,0.4,1.4,0.6,2.5,0.6s1.9-0.2,2.5-0.6s0.9-1,0.9-1.8V171.3z"/>
        <path class="st1" d="M634.8,170.5c0-0.6,0.1-1.3,0.4-1.9c0.3-0.6,0.7-1.2,1.3-1.7s1.4-0.9,2.4-1.1s2.2-0.4,3.6-0.4 c1.4,0,2.6,0.1,3.6,0.4s1.8,0.7,2.4,1.1c0.6,0.5,1,1,1.3,1.7c0.3,0.7,0.4,1.3,0.4,1.9v11.6c0,0.7-0.1,1.3-0.4,1.9 s-0.7,1.2-1.3,1.6c-0.6,0.5-1.4,0.9-2.4,1.1s-2.2,0.4-3.6,0.4s-2.6-0.1-3.6-0.4s-1.8-0.7-2.4-1.1c-0.6-0.5-1-1-1.3-1.6 c-0.3-0.6-0.4-1.2-0.4-1.9V170.5z M645.8,171.3c0-0.8-0.3-1.4-0.9-1.8s-1.4-0.6-2.5-0.6s-1.9,0.2-2.5,0.6s-0.9,1-0.9,1.8v10.2 c0,0.8,0.3,1.4,0.9,1.8c0.6,0.4,1.4,0.6,2.5,0.6s1.9-0.2,2.5-0.6s0.9-1,0.9-1.8V171.3z"/>
        <path class="st1" d="M678.8,186.2c0.1,0.2,0.2,0.4,0.1,0.5c-0.1,0.2-0.2,0.3-0.5,0.3h-3.5c-0.3,0-0.5-0.1-0.7-0.3 c-0.2-0.2-0.3-0.3-0.5-0.5l-5.9-8.2h-0.5v8.2c0,0.3-0.1,0.5-0.2,0.6c-0.1,0.1-0.3,0.2-0.6,0.2h-2.7c-0.3,0-0.5-0.1-0.6-0.2 s-0.2-0.3-0.2-0.6v-19.8c0-0.3,0.1-0.5,0.2-0.6c0.1-0.1,0.3-0.2,0.6-0.2h2.7c0.3,0,0.5,0.1,0.6,0.2s0.2,0.3,0.2,0.6v8.5h0.5 l5.6-8.5c0.1-0.2,0.3-0.4,0.5-0.6c0.2-0.2,0.4-0.2,0.7-0.2h2.9c0.3,0,0.5,0.1,0.5,0.2c0.1,0.2,0,0.3-0.1,0.6l-6.6,9.7 L678.8,186.2z"/>
      </g>
    </g>
    <polygon class="st2" points="221.8,35.3 112.1,44.6 211.3,46.5 &#9;"/>
    <polygon class="st2" points="221.8,35.3 112.1,44.6 211.3,46.5 &#9;"/>
    <polygon class="st3" points="221.8,35.3 211.3,46.5 248.9,60.2 &#9;"/>
    <polygon class="st3" points="221.8,35.3 211.3,46.5 248.9,60.2 &#9;"/>
    <polygon class="st3" points="291.6,99.6 211.3,46.5 248.9,60.2 &#9;"/>
    <polygon class="st3" points="291.6,99.6 211.3,46.5 248.9,60.2 &#9;"/>
    <polygon class="st4" points="291.6,99.6 211.3,46.5 245.3,85.5 &#9;"/>
    <polygon class="st4" points="291.6,99.6 211.3,46.5 245.3,85.5 &#9;"/>
    <polygon class="st5" points="291.6,99.6 285.6,108.4 245.3,85.5 &#9;"/>
    <polygon class="st5" points="291.6,99.6 285.6,108.4 245.3,85.5 &#9;"/>
    <polygon class="st6" points="291.6,99.6 285.6,108.4 283.9,142.6 &#9;"/>
    <polygon class="st6" points="291.6,99.6 285.6,108.4 283.9,142.6 &#9;"/>
    <polygon class="st7" points="279.2,144 285.6,108.4 283.9,142.6 &#9;"/>
    <polygon class="st7" points="279.2,144 285.6,108.4 283.9,142.6 &#9;"/>
    <polygon class="st8" points="279.2,144 285.6,108.4 282,108.4 &#9;"/>
    <polygon class="st8" points="279.2,144 285.6,108.4 282,108.4 &#9;"/>
    <polygon class="st4" points="223.6,65.6 211.3,46.5 245.3,85.5 &#9;"/>
    <polygon class="st4" points="223.6,65.6 211.3,46.5 245.3,85.5 &#9;"/>
    <polygon class="st4" points="223.6,65.6 209.2,64.9 245.3,85.5 &#9;"/>
    <polygon class="st4" points="223.6,65.6 209.2,64.9 245.3,85.5 &#9;"/>
    <polygon class="st9" points="223.6,65.6 211.3,46.5 112.1,44.6 &#9;"/>
    <polygon class="st9" points="223.6,65.6 211.3,46.5 112.1,44.6 &#9;"/>
    <polygon class="st10" points="143.2,95.5 152.1,67.8 112.1,44.6 &#9;"/>
    <polygon class="st10" points="143.2,95.5 152.1,67.8 112.1,44.6 &#9;"/>
    <polygon class="st11" points="129.5,77.4 143.2,95.5 112.1,44.6 &#9;"/>
    <polygon class="st11" points="129.5,77.4 143.2,95.5 112.1,44.6 &#9;"/>
    <polygon class="st2" points="143.2,95.5 129.5,77.4 139.4,135.7 &#9;"/>
    <polygon class="st2" points="143.2,95.5 129.5,77.4 139.4,135.7 &#9;"/>
    <polygon class="st12" points="143.2,95.5 152.1,67.8 155.9,119.8 &#9;"/>
    <polygon class="st12" points="143.2,95.5 152.1,67.8 155.9,119.8 &#9;"/>
    <polygon class="st8" points="143.2,95.5 147.1,117.7 155.9,119.8 &#9;"/>
    <polygon class="st8" points="143.2,95.5 147.1,117.7 155.9,119.8 &#9;"/>
    <polygon class="st8" points="143.2,95.5 147.1,117.7 139.4,135.7 &#9;"/>
    <polygon class="st8" points="143.2,95.5 147.1,117.7 139.4,135.7 &#9;"/>
    <polygon class="st13" points="175.8,154.4 147.1,117.7 139.4,135.7 &#9;"/>
    <polygon class="st13" points="175.8,154.4 147.1,117.7 139.4,135.7 &#9;"/>
    <polygon class="st14" points="215,187.5 175.8,154.4 139.4,135.7 &#9;"/>
    <polygon class="st14" points="215,187.5 175.8,154.4 139.4,135.7 &#9;"/>
    <polygon class="st15" points="175.8,154.4 147.1,117.7 211.3,162.3 &#9;"/>
    <polygon class="st15" points="175.8,154.4 147.1,117.7 211.3,162.3 &#9;"/>
    <polygon class="st5" points="155.9,119.8 147.1,117.7 211.3,162.3 &#9;"/>
    <polygon class="st5" points="155.9,119.8 147.1,117.7 211.3,162.3 &#9;"/>
    <polygon class="st9" points="215,187.5 211.3,162.3 175.8,154.4 &#9;"/>
    <polygon class="st9" points="215,187.5 211.3,162.3 175.8,154.4 &#9;"/>
    <polygon class="st16" points="215,187.5 223.6,170.8 211.3,162.3 &#9;"/>
    <polygon class="st16" points="215,187.5 223.6,170.8 211.3,162.3 &#9;"/>
    <polygon class="st17" points="259.1,159.1 215,187.5 282.1,152.2 &#9;"/>
    <polygon class="st17" points="259.1,159.1 215,187.5 282.1,152.2 &#9;"/>
    <polygon class="st18" points="259.1,159.1 283.6,143.9 282.1,152.2 &#9;"/>
    <polygon class="st18" points="259.1,159.1 283.6,143.9 282.1,152.2 &#9;"/>
    <polygon class="st18" points="223.6,170.8 215,187.5 259.1,159.1 &#9;"/>
    <polygon class="st18" points="223.6,170.8 215,187.5 259.1,159.1 &#9;"/>
    <polygon class="st18" points="259.1,159.1 222.1,166.7 223.6,170.8 &#9;"/>
    <polygon class="st18" points="259.1,159.1 222.1,166.7 223.6,170.8 &#9;"/>
    <polygon class="st19" points="211.3,162.3 222.1,166.7 223.6,170.8 &#9;"/>
    <polygon class="st19" points="211.3,162.3 222.1,166.7 223.6,170.8 &#9;"/>
    <polygon class="st7" points="259.1,159.1 222.1,166.7 283.6,143.9 &#9;"/>
    <polygon class="st7" points="259.1,159.1 222.1,166.7 283.6,143.9 &#9;"/>
    <polygon class="st20" points="209.2,64.9 223.6,65.6 112.1,44.6 &#9;"/>
    <polygon class="st20" points="209.2,64.9 223.6,65.6 112.1,44.6 &#9;"/>
    <polygon class="st21" points="184.8,70.3 184.8,82.7 164.2,74.8 &#9;"/>
    <polygon class="st21" points="184.8,70.3 184.8,82.7 164.2,74.8 &#9;"/>
    <polygon class="st22" points="184.8,70.3 184.8,82.7 225.2,92.4 &#9;"/>
    <polygon class="st22" points="184.8,70.3 184.8,82.7 225.2,92.4 &#9;"/>
    <polygon class="st23" points="164.2,93.3 184.8,82.7 164.2,74.8 &#9;"/>
    <polygon class="st23" points="164.2,93.3 184.8,82.7 164.2,74.8 &#9;"/>
    <polygon class="st24" points="164.2,93.3 164.2,121.8 184.8,82.7 &#9;"/>
    <polygon class="st24" points="164.2,93.3 164.2,121.8 184.8,82.7 &#9;"/>
    <polygon class="st25" points="220.5,162 164.2,121.8 200.3,131 &#9;"/>
    <polygon class="st25" points="220.5,162 164.2,121.8 200.3,131 &#9;"/>
    <polygon class="st26" points="220.5,162 273.4,138.8 246.9,137.6 &#9;"/>
    <polygon class="st26" points="220.5,162 273.4,138.8 246.9,137.6 &#9;"/>
    <polygon class="st27" points="227.4,129.3 259.1,117.7 246.9,137.6 &#9;"/>
    <polygon class="st27" points="227.4,129.3 259.1,117.7 246.9,137.6 &#9;"/>
    <polygon class="st28" points="227.4,129.3 259.1,117.7 241.6,98.3 &#9;"/>
    <polygon class="st28" points="227.4,129.3 259.1,117.7 241.6,98.3 &#9;"/>
    <polygon class="st29" points="279.2,108.4 259.1,117.7 241.6,98.3 &#9;"/>
    <polygon class="st29" points="279.2,108.4 259.1,117.7 241.6,98.3 &#9;"/>
    <polygon class="st30" points="227.4,129.3 198,107 200.3,131 &#9;"/>
    <polygon class="st30" points="227.4,129.3 198,107 200.3,131 &#9;"/>
    <polygon class="st31" points="227.4,129.3 198,107 220.5,99.6 &#9;"/>
    <polygon class="st31" points="227.4,129.3 198,107 220.5,99.6 &#9;"/>
    <polygon class="st32" points="227.4,129.3 225.2,92.4 220.5,99.6 &#9;"/>
    <polygon class="st32" points="227.4,129.3 225.2,92.4 220.5,99.6 &#9;"/>
    <polygon class="st33" points="184.8,82.7 225.2,92.4 220.5,99.6 &#9;"/>
    <polygon class="st33" points="184.8,82.7 225.2,92.4 220.5,99.6 &#9;"/>
    <polygon class="st34" points="200.3,131 164.2,121.8 198,107 &#9;"/>
    <polygon class="st34" points="200.3,131 164.2,121.8 198,107 &#9;"/>
    <polygon class="st35" points="220.5,99.6 184.8,82.7 198,107 &#9;"/>
    <polygon class="st35" points="220.5,99.6 184.8,82.7 198,107 &#9;"/>
    <polygon class="st36" points="164.2,121.8 184.8,82.7 198,107 &#9;"/>
    <polygon class="st36" points="164.2,121.8 184.8,82.7 198,107 &#9;"/>
    <polygon class="st35" points="200.3,131 220.5,162 227.4,129.3 &#9;"/>
    <polygon class="st35" points="200.3,131 220.5,162 227.4,129.3 &#9;"/>
    <polygon class="st29" points="246.9,137.6 220.5,162 227.4,129.3 &#9;"/>
    <polygon class="st29" points="246.9,137.6 220.5,162 227.4,129.3 &#9;"/>
    <polygon class="st37" points="246.9,137.6 273.4,138.8 259.1,117.7 &#9;"/>
    <polygon class="st37" points="246.9,137.6 273.4,138.8 259.1,117.7 &#9;"/>
    <polygon class="st38" points="259.1,117.7 279.2,108.4 273.4,138.8 &#9;"/>
    <polygon class="st38" points="259.1,117.7 279.2,108.4 273.4,138.8 &#9;"/>
    <polygon class="st39" points="184.8,70.3 224.9,86.5 225.2,92.4 &#9;"/>
    <polygon class="st39" points="184.8,70.3 224.9,86.5 225.2,92.4 &#9;"/>
    <polygon class="st39" points="279.2,108.4 243.6,94.1 241.6,98.3 &#9;"/>
    <polygon class="st39" points="279.2,108.4 243.6,94.1 241.6,98.3 &#9;"/>
    <polygon class="st40" points="227.4,129.3 241.6,98.3 225.2,92.4 &#9;"/>
    <polygon class="st40" points="227.4,129.3 241.6,98.3 225.2,92.4 &#9;"/>
    <polygon class="st41" points="243.6,94.1 241.6,98.3 225.2,92.4 &#9;"/>
    <polygon class="st41" points="243.6,94.1 241.6,98.3 225.2,92.4 &#9;"/>
    <polygon class="st41" points="243.6,94.1 224.9,86.5 225.2,92.4 &#9;"/>
    <polygon class="st41" points="243.6,94.1 224.9,86.5 225.2,92.4 &#9;"/>
    <polygon class="st42" points="184.8,70.3 152.1,67.8 165.8,62 &#9;"/>
    <polygon class="st42" points="184.8,70.3 152.1,67.8 165.8,62 &#9;"/>
    <polygon class="st43" points="152.1,67.8 165.8,62 112.1,44.6 &#9;"/>
    <polygon class="st43" points="152.1,67.8 165.8,62 112.1,44.6 &#9;"/>
    <polygon class="st42" points="165.8,62 209.2,64.9 112.1,44.6 &#9;"/>
    <polygon class="st42" points="165.8,62 209.2,64.9 112.1,44.6 &#9;"/>
    <polygon class="st43" points="184.8,70.3 209.2,64.9 165.8,62 &#9;"/>
    <polygon class="st43" points="184.8,70.3 209.2,64.9 165.8,62 &#9;"/>
    <polygon class="st44" points="184.8,70.3 209.2,64.9 224.9,86.5 &#9;"/>
    <polygon class="st44" points="184.8,70.3 209.2,64.9 224.9,86.5 &#9;"/>
    <polygon class="st45" points="245.3,85.5 209.2,64.9 224.9,86.5 &#9;"/>
    <polygon class="st45" points="245.3,85.5 209.2,64.9 224.9,86.5 &#9;"/>
    <polygon class="st42" points="245.3,85.5 243.6,94.1 224.9,86.5 &#9;"/>
    <polygon class="st42" points="245.3,85.5 243.6,94.1 224.9,86.5 &#9;"/>
    <polygon class="st46" points="184.8,70.3 152.1,67.8 164.2,74.8 &#9;"/>
    <polygon class="st46" points="184.8,70.3 152.1,67.8 164.2,74.8 &#9;"/>
    <polygon class="st47" points="155.9,119.8 152.1,67.8 164.2,74.8 &#9;"/>
    <polygon class="st47" points="155.9,119.8 152.1,67.8 164.2,74.8 &#9;"/>
    <polygon class="st44" points="155.9,119.8 164.2,121.8 164.2,74.8 &#9;"/>
    <polygon class="st44" points="155.9,119.8 164.2,121.8 164.2,74.8 &#9;"/>
    <polygon class="st19" points="155.9,119.8 164.2,121.8 211.3,162.3 &#9;"/>
    <polygon class="st19" points="155.9,119.8 164.2,121.8 211.3,162.3 &#9;"/>
    <polygon class="st19" points="220.5,162 164.2,121.8 211.3,162.3 &#9;"/>
    <polygon class="st19" points="220.5,162 164.2,121.8 211.3,162.3 &#9;"/>
    <polygon class="st19" points="220.5,162 222.1,166.7 211.3,162.3 &#9;"/>
    <polygon class="st19" points="220.5,162 222.1,166.7 211.3,162.3 &#9;"/>
    <polygon class="st17" points="220.5,162 222.1,166.7 273.4,138.8 &#9;"/>
    <polygon class="st17" points="220.5,162 222.1,166.7 273.4,138.8 &#9;"/>
    <polygon class="st45" points="245.3,85.5 243.6,94.1 279.2,108.4 &#9;"/>
    <polygon class="st45" points="245.3,85.5 243.6,94.1 279.2,108.4 &#9;"/>
    <polygon class="st7" points="245.3,85.5 282,108.4 285.6,108.4 &#9;"/>
    <polygon class="st7" points="245.3,85.5 282,108.4 285.6,108.4 &#9;"/>
    <polygon class="st42" points="245.3,85.5 282,108.4 279.2,108.4 &#9;"/>
    <polygon class="st42" points="245.3,85.5 282,108.4 279.2,108.4 &#9;"/>
    <polygon class="st48" points="273.4,138.8 282,108.4 279.2,108.4 &#9;"/>
    <polygon class="st48" points="273.4,138.8 282,108.4 279.2,108.4 &#9;"/>
    <polygon class="st42" points="273.4,138.8 282,108.4 279.2,144 &#9;"/>
    <polygon class="st42" points="273.4,138.8 282,108.4 279.2,144 &#9;"/>
    <polygon class="st49" points="279.2,144 222.1,166.7 273.4,138.8 &#9;"/>
    <polygon class="st49" points="279.2,144 222.1,166.7 273.4,138.8 &#9;"/>
    <polygon class="st50" points="279.2,144 222.1,166.7 283.6,143.9 &#9;"/>
    <polygon class="st50" points="279.2,144 222.1,166.7 283.6,143.9 &#9;"/>
    <polygon class="st49" points="279.2,144 283.9,142.6 283.6,143.9 &#9;"/>
    <polygon class="st49" points="279.2,144 283.9,142.6 283.6,143.9 &#9;"/>
    <polygon class="st31" points="491.1,113.7 529.8,113.7 532.1,100.8 480.5,100.8 474.9,133 513.4,133 512.3,139.4 473.8,139.4 &#10;&#9;&#9;471.4,152.3 522.9,152.3 528.7,120.1 490,120.1 &#9;"/>
    <polygon class="st31" points="599.3,113.7 637.9,113.7 640.2,100.8 588.7,100.8 579.7,152.3 631.2,152.3 633.3,139.4 594.8,139.4 &#10;&#9;&#9;595.8,133 634.4,133 636.8,120.1 598.2,120.1 &#9;"/>
    <polygon class="st31" points="642.8,100.8 640.4,113.7 672.7,113.7 671.6,120.1 639.3,120.1 637.1,133 659.7,133 665.8,152.3 &#10;&#9;&#9;678.8,152.3 672.4,133 682.2,133 687.8,100.8 &#9;"/>
    <polygon class="st31" points="556.9,120.1 544.1,120.1 538.3,152.3 577.1,152.3 579.3,139.4 553.7,139.4 &#9;"/>
    <polygon class="st31" points="534.7,100.8 532.3,113.7 583.8,113.7 586.2,100.8 &#9;"/>
    <polygon class="st31" points="423,120.1 417.4,152.3 430.2,152.3 435.9,120.1 &#9;"/>
    <polygon class="st31" points="477.9,100.8 426.4,100.8 424.1,113.7 462.9,113.7 456,152.3 468.9,152.3 &#9;"/>
    <polygon class="st31" points="423.9,100.8 372.4,100.8 370.1,113.7 408.8,113.7 404.1,139.4 378.4,139.4 381.9,120.1 368.9,120.1 &#10;&#9;&#9;363.4,152.3 414.9,152.3 &#9;"/>
    <polygon class="st31" points="369.9,100.8 305.4,100.8 303.1,113.7 328.9,113.7 322.1,152.3 334.9,152.3 341.8,113.7 354.6,113.7 &#10;&#9;&#9;347.9,152.3 360.8,152.3 &#9;"/>
    <polygon class="st31" points="302,120.1 296.4,152.3 309.2,152.3 314.9,120.1 &#9;"/>
  </g>
</svg>