<svg xmlns="http://www.w3.org/2000/svg" fill="none" viewBox="0 0 222 48" height="48" width="222">
<g clip-path="url(#clip0_2293_1012)" id="Maxi Cosi">
<path fill="#426E90" d="M78.6276 16.3622C78.4328 15.1953 78.1581 14.5993 77.5838 14.0784C76.9496 13.5024 76.0458 13.1469 75.2368 13.1469C73.9783 13.1469 72.7748 13.8781 72.2504 14.9599L68.3053 23.3689L64.7997 15.4507C64.1804 14.0484 62.8271 13.1418 61.3539 13.1418C59.6161 13.1418 58.3726 14.3438 58.0281 16.3522L55.5312 30.6009C55.4662 30.8914 55.4363 31.1769 55.4363 31.4574C55.4363 33.656 56.8545 35.1886 58.892 35.1886C60.6498 35.1886 61.9083 33.9866 62.2528 31.9782L63.0618 27.4557L64.8696 32.3639C65.5537 34.2921 66.6474 35.1886 68.3103 35.1886C69.9733 35.1886 71.1218 34.227 71.816 32.3338L73.6188 27.4858L74.5975 32.6093C74.9122 34.1769 76.2305 35.1886 77.9584 35.1886C79.8211 35.1886 81.2793 33.7412 81.2793 31.8931C81.2793 31.5625 81.2443 31.1368 81.1844 30.6961L78.6226 16.3572L78.6276 16.3622Z" id="Vector"></path>
<path fill="#426E90" d="M118.573 23.8198L122.089 19.152C122.828 18.1954 123.197 17.3089 123.197 16.5126C123.197 14.7196 121.599 13.147 119.772 13.147C118.598 13.147 117.804 13.6428 116.726 15.0451L114.274 18.1253L111.702 14.7096C110.878 13.6628 109.949 13.147 108.855 13.147C106.963 13.147 105.365 14.7046 105.365 16.5476C105.365 17.4041 105.694 18.1102 106.773 19.5526L109.994 23.8198L105.709 29.4892C105.2 30.1203 104.9 30.9917 104.9 31.8281C104.9 33.6862 106.433 35.1937 108.326 35.1937C109.45 35.1937 110.219 34.773 111.073 33.6962L114.284 29.5143L117.495 33.7363C118.204 34.6929 119.172 35.1987 120.306 35.1987C122.124 35.1987 123.597 33.6712 123.597 31.7981C123.597 31.0067 123.327 30.1904 122.853 29.5593L118.573 23.8198Z" id="Vector_2"></path>
<path fill="#426E90" d="M128.875 13.147C127.882 13.147 126.963 13.5526 126.349 14.2538C125.629 15.0702 125.485 15.6111 125.485 17.4491V31.2321C125.485 32.7346 125.694 33.4358 126.339 34.1169C127.003 34.783 127.977 35.2037 128.87 35.2037C130.928 35.2037 132.261 33.6461 132.261 31.2371V17.4542C132.261 15.6461 132.086 15.0151 131.367 14.2338C130.753 13.5577 129.824 13.152 128.87 13.152" id="Vector_3"></path>
<path fill="#426E90" d="M160.341 27.01C158.848 26.8497 157.375 27.7662 156.985 28.0317C156.726 28.207 155.437 28.828 154.244 28.828C151.727 28.828 149.679 26.7595 149.679 24.2203C149.679 21.6811 151.697 19.5776 154.279 19.5776C154.953 19.5776 155.982 19.7228 156.856 20.1335C157.01 20.2086 157.19 20.3038 157.395 20.414C158.199 20.8497 159.323 21.4607 160.421 21.3455C161.26 21.2554 161.994 20.8347 162.484 20.1636C163.023 19.4223 163.213 18.4457 163.013 17.4941C162.728 16.1519 161.625 14.9849 159.632 13.9232C158.049 13.0818 155.957 12.7812 154.523 12.7812H154.384C147.927 12.8864 142.868 17.9148 142.868 24.2253C142.868 30.5358 148.017 35.5993 154.344 35.5993V35.8697L154.349 35.5993C155.727 35.5993 159.223 35.3439 161.824 32.9649C162.414 32.3989 162.828 31.6828 162.983 30.9515C163.173 30.05 162.948 29.0383 162.379 28.252C161.864 27.5409 161.145 27.1051 160.346 27.015" id="Vector_4"></path>
<path fill="#426E90" d="M175.053 12.7813C168.761 12.7813 163.642 17.8397 163.642 24.055C163.642 30.2704 168.671 35.5943 175.088 35.5943C181.505 35.5943 186.499 30.4607 186.499 24.1502C186.499 17.8397 181.365 12.7762 175.058 12.7762M175.083 28.8681C172.531 28.8681 170.454 26.7696 170.454 24.1903C170.454 21.611 172.531 19.5776 175.083 19.5776C177.635 19.5776 179.712 21.7061 179.712 24.2203C179.712 26.7345 177.59 28.8631 175.083 28.8631" id="Vector_5"></path>
<path fill="#426E90" d="M201.381 23.419C200.327 22.5676 198.509 21.6711 196.751 21.1352C194.964 20.5692 194.329 20.0934 194.329 19.222C194.329 18.601 194.704 18.1702 195.463 18.0801C195.967 18.02 196.442 18.1001 197.296 18.7762C198.424 19.6577 199.183 19.9282 200.087 19.8981C201.555 19.848 202.614 18.9215 202.614 17.3839C202.614 14.8046 199.603 12.7812 195.763 12.7812C191.048 12.7812 187.877 15.611 187.877 19.818C187.877 22.818 189.415 24.6661 192.567 25.7629C194.07 26.2938 195.118 26.6894 195.518 26.8747C195.932 27.06 196.192 27.2654 196.337 27.5208C196.467 27.7362 196.532 28.1268 196.532 28.3622C196.532 29.0784 195.912 29.6644 195.303 29.7045C194.704 29.7445 194.249 29.8196 192.631 28.5275C191.733 27.8113 191.028 27.4858 190.204 27.5208C188.512 27.5859 187.388 28.853 187.388 30.2003C187.388 33.2804 190.849 35.5993 195.438 35.5993C200.327 35.5993 203.483 32.7445 203.483 28.3272C203.483 26.2988 202.679 24.4908 201.386 23.414" id="Vector_6"></path>
<path fill="#426E90" d="M208.597 13.147C207.603 13.147 206.684 13.5526 206.07 14.2538C205.351 15.0702 205.206 15.6111 205.206 17.4491V31.2321C205.206 32.7346 205.416 33.4358 206.06 34.1169C206.729 34.783 207.698 35.2037 208.592 35.2037C210.654 35.2037 211.982 33.6461 211.982 31.2371V17.4542C211.982 15.6461 211.808 15.0151 211.089 14.2338C210.474 13.5577 209.545 13.152 208.592 13.152" id="Vector_7"></path>
<path fill="#426E90" d="M96.1859 15.2254C95.5567 13.9032 94.3981 13.147 93.0049 13.147C91.6116 13.147 90.483 13.9132 89.8887 15.1904L82.9323 29.975C82.6577 30.581 82.5278 31.177 82.5278 31.7931C82.5278 33.7012 84.001 35.1937 85.8837 35.1937C87.5266 35.1937 88.5104 34.3774 89.3943 32.2889L89.4642 32.1236H96.6054L96.6803 32.2789C97.3345 33.6962 97.6541 34.157 98.2883 34.6077C98.8676 34.9934 99.5068 35.1937 100.191 35.1937C102.064 35.1937 103.582 33.6862 103.582 31.8281C103.582 31.2622 103.457 30.7062 103.212 30.1754L96.1909 15.2254H96.1859ZM90.468 27.4959L92.9999 21.4508L95.5317 27.4959H90.468Z" id="Vector_8"></path>
<path fill="#426E90" d="M137.729 21.025C135.972 21.025 134.538 22.4624 134.538 24.2254C134.538 25.9883 135.972 27.4557 137.729 27.4557C139.487 27.4557 140.955 26.0083 140.955 24.2254C140.955 22.4424 139.477 21.025 137.729 21.025Z" id="Vector_9"></path>
<path fill="#426E90" d="M38.4574 28.1068C37.8581 28.7078 23.3511 39.5008 23.3511 39.5008C22.5371 40.0668 21.5483 40.3973 20.4846 40.3973C19.0864 40.3973 17.8229 39.8264 16.9091 38.9099L9.41833 30.6611C8.57937 29.8197 8.15989 28.7129 8.15989 27.611C8.15989 26.5092 8.5594 25.3823 9.41833 24.5609C11.0663 22.9833 12.3747 23.2688 12.934 23.3489C13.4933 23.4291 13.8478 23.9199 13.738 24.4558C13.5083 25.6177 13.758 26.8998 14.4521 28.2421C14.9814 29.2638 15.8104 30.1102 16.8491 30.606C19.3361 31.793 21.798 31.3022 23.4859 29.8998H23.4909L32.8992 21.606C34.4573 20.2137 37.109 20.6144 38.4624 22.0117C40.1153 23.7195 40.1403 26.4291 38.4624 28.1119M19.6557 20.1836C22.4722 20.1836 24.7543 22.4725 24.7543 25.2972C24.7543 28.1219 22.4722 30.4107 19.6557 30.4107C16.8391 30.4107 14.557 28.1219 14.557 25.2972C14.557 22.4725 16.8391 20.1836 19.6557 20.1836ZM27.8006 8.10851C31.5709 7.59766 35.0416 10.2471 35.551 14.0334C36.0603 17.8147 33.4186 21.2955 29.6433 21.8063C25.873 22.3172 22.4023 19.6678 21.8929 15.8865C21.3835 12.1052 24.0252 8.62438 27.8006 8.11352M23.9304 0C10.7117 0 0 10.7479 0 24C0 37.2521 10.7117 48 23.9304 48C37.149 48 47.8607 37.2571 47.8607 24C47.8607 10.7429 37.144 0 23.9304 0Z" id="Vector_10"></path>
<path fill="#426E90" d="M221.131 17.1435C220.996 17.4791 220.812 17.7696 220.577 18.015C220.342 18.2604 220.062 18.4557 219.743 18.5909C219.423 18.7312 219.079 18.8013 218.709 18.8013C218.34 18.8013 217.985 18.7312 217.665 18.5909C217.341 18.4507 217.066 18.2604 216.826 18.015C216.587 17.7696 216.402 17.4791 216.272 17.1435C216.137 16.808 216.072 16.4474 216.072 16.0517C216.072 15.656 216.137 15.3105 216.272 14.9799C216.407 14.6494 216.592 14.3639 216.826 14.1185C217.061 13.8731 217.341 13.6828 217.665 13.5425C217.985 13.4023 218.335 13.3322 218.709 13.3322C219.084 13.3322 219.423 13.4023 219.743 13.5425C220.062 13.6828 220.337 13.8731 220.577 14.1185C220.812 14.3639 220.996 14.6494 221.131 14.9799C221.266 15.3105 221.331 15.6661 221.331 16.0517C221.331 16.4373 221.266 16.808 221.131 17.1435ZM221.735 14.7595C221.561 14.3589 221.321 14.0133 221.026 13.7228C220.727 13.4273 220.382 13.202 219.983 13.0317C219.583 12.8664 219.159 12.7812 218.709 12.7812C218.26 12.7812 217.835 12.8664 217.431 13.0317C217.031 13.1969 216.677 13.4273 216.377 13.7228C216.077 14.0183 215.838 14.3639 215.663 14.7595C215.488 15.1602 215.398 15.5909 215.398 16.0517C215.398 16.5125 215.488 16.9632 215.663 17.3689C215.838 17.7696 216.077 18.1201 216.377 18.4156C216.677 18.7111 217.031 18.9415 217.431 19.1068C217.83 19.2721 218.255 19.3522 218.709 19.3522C219.164 19.3522 219.583 19.2721 219.983 19.1068C220.382 18.9415 220.727 18.7111 221.026 18.4156C221.326 18.1201 221.561 17.7696 221.735 17.3689C221.91 16.9682 222 16.5275 222 16.0517C222 15.5759 221.91 15.1552 221.735 14.7595Z" id="Vector_11"></path>
<path fill="#426E90" d="M219.029 15.8364C218.909 15.8464 218.779 15.8514 218.644 15.8514H218.08L218.02 15.7913V14.6895L218.08 14.6294H218.809C218.909 14.6294 219.009 14.6344 219.114 14.6494C219.218 14.6644 219.308 14.6945 219.383 14.7345C219.463 14.7746 219.528 14.8347 219.578 14.9098C219.628 14.985 219.653 15.0901 219.653 15.2203C219.653 15.3706 219.623 15.4908 219.568 15.5759C219.513 15.6611 219.438 15.7212 219.343 15.7663C219.248 15.8063 219.144 15.8314 219.024 15.8414M219.338 16.2771C219.583 16.237 219.793 16.1469 219.968 16.0017C220.162 15.8414 220.257 15.586 220.257 15.2404C220.257 14.8698 220.147 14.5943 219.928 14.414C219.708 14.2337 219.368 14.1436 218.914 14.1436H217.61C217.511 14.1436 217.431 14.2237 217.431 14.3239V17.8097C217.431 17.9098 217.511 17.99 217.61 17.99H217.85C217.95 17.99 218.03 17.9098 218.03 17.8097V16.3923L218.09 16.3322H218.614L218.689 16.3723L219.653 17.8998C219.688 17.9499 219.743 17.985 219.803 17.985H220.017C220.157 17.985 220.242 17.8297 220.167 17.7095L219.298 16.3673C219.273 16.3322 219.298 16.2821 219.338 16.2771Z" id="Vector_12"></path>
</g>
<defs>
<clipPath id="clip0_2293_1012">
<rect fill="white" height="48" width="222"></rect>
</clipPath>
</defs>
</svg>
